<?xml version="1.0" encoding="UTF-8" standalone="no"?>
<svg
   width="16"
   height="16"
   fill="currentColor"
   class="bi bi-file-earmark-image-fill"
   viewBox="0 0 16 16"
   version="1.1"
   id="svg6"
   sodipodi:docname="file-earmark-image-fill.svg"
   inkscape:version="1.1.2 (0a00cf5339, 2022-02-04)"
   xmlns:inkscape="http://www.inkscape.org/namespaces/inkscape"
   xmlns:sodipodi="http://sodipodi.sourceforge.net/DTD/sodipodi-0.dtd"
   xmlns="http://www.w3.org/2000/svg"
   xmlns:svg="http://www.w3.org/2000/svg">
  <defs
     id="defs10" />
  <sodipodi:namedview
     id="namedview8"
     pagecolor="#ffffff"
     bordercolor="#666666"
     borderopacity="1.0"
     inkscape:pageshadow="2"
     inkscape:pageopacity="0.0"
     inkscape:pagecheckerboard="0"
     showgrid="false"
     inkscape:zoom="52.75"
     inkscape:cx="7.9905213"
     inkscape:cy="8.0094787"
     inkscape:window-width="1846"
     inkscape:window-height="1016"
     inkscape:window-x="74"
     inkscape:window-y="27"
     inkscape:window-maximized="1"
     inkscape:current-layer="svg6" />
  <path
     d="M4 0h5.293A1 1 0 0 1 10 .293L13.707 4a1 1 0 0 1 .293.707v5.586l-2.73-2.73a1 1 0 0 0-1.52.127l-1.889 2.644-1.769-1.062a1 1 0 0 0-1.222.15L2 12.292V2a2 2 0 0 1 2-2zm5.5 1.5v2a1 1 0 0 0 1 1h2l-3-3zm-1.498 4a1.5 1.5 0 1 0-3 0 1.5 1.5 0 0 0 3 0z"
     id="path2"
     style="fill:#333333" />
  <path
     d="M10.564 8.27 14 11.708V14a2 2 0 0 1-2 2H4a2 2 0 0 1-2-2v-.293l3.578-3.577 2.56 1.536 2.426-3.395z"
     id="path4"
     style="fill:#333333" />
</svg>
